<svg width="800" height="240" viewBox="0 0 800 240" fill="none" xmlns="http://www.w3.org/2000/svg">
<path d="M751.982 213V149.854L758.666 136.486C758.314 146.688 756.262 155.072 752.509 161.639C748.757 168.206 743.89 173.072 737.91 176.238C732.047 179.404 725.597 180.987 718.562 180.987C711.878 180.987 705.721 179.697 700.093 177.118C694.581 174.538 689.774 170.961 685.669 166.388C681.683 161.815 678.575 156.597 676.347 150.733C674.119 144.753 673.005 138.421 673.005 131.737V128.571C673.005 121.887 674.119 115.672 676.347 109.926C678.575 104.18 681.741 99.1378 685.845 94.7991C689.95 90.3431 694.816 86.8839 700.445 84.4213C706.073 81.9588 712.347 80.7276 719.265 80.7276C727.239 80.7276 734.216 82.4279 740.197 85.8285C746.294 89.2291 751.102 94.1542 754.62 100.604C758.138 107.053 760.073 114.91 760.425 124.173H755.5V83.8937H768.867V213H751.982ZM721.552 165.509C727.298 165.509 732.516 164.219 737.207 161.639C741.897 159.059 745.649 155.365 748.464 150.558C751.278 145.633 752.685 139.887 752.685 133.32V125.229C752.685 118.779 751.219 113.327 748.288 108.871C745.474 104.297 741.662 100.838 736.855 98.4929C732.164 96.0304 727.063 94.7991 721.552 94.7991C715.22 94.7991 709.65 96.2649 704.842 99.1965C700.151 102.128 696.458 106.291 693.761 111.685C691.181 116.962 689.891 123.118 689.891 130.154C689.891 137.19 691.239 143.405 693.937 148.799C696.634 154.075 700.386 158.18 705.194 161.111C710.002 164.043 715.454 165.509 721.552 165.509Z" fill="#0B1220"/>
<path d="M573.024 177.821V83.8937H586.392V124.173H584.281C584.281 114.91 585.512 107.112 587.975 100.78C590.555 94.3301 594.424 89.4637 599.584 86.1803C604.743 82.7797 611.251 81.0794 619.108 81.0794H619.812C631.655 81.0794 640.391 84.7731 646.02 92.1607C651.766 99.5483 654.639 110.219 654.639 124.173V177.821H637.753V120.656C637.753 113.385 635.701 107.581 631.597 103.242C627.492 98.7861 621.864 96.5581 614.711 96.5581C607.323 96.5581 601.343 98.8447 596.769 103.418C592.196 107.991 589.91 114.089 589.91 121.711V177.821H573.024Z" fill="#0B1220"/>
<path d="M531.355 177.821V83.8937H548.241V177.821H531.355ZM516.932 97.2616V83.8937H548.241V97.2616H516.932ZM536.104 68.7668C532.352 68.7668 529.537 67.77 527.661 65.7766C525.902 63.7831 525.023 61.262 525.023 58.2131C525.023 55.1643 525.902 52.6431 527.661 50.6497C529.537 48.6562 532.352 47.6595 536.104 47.6595C539.856 47.6595 542.612 48.6562 544.371 50.6497C546.247 52.6431 547.185 55.1643 547.185 58.2131C547.185 61.262 546.247 63.7831 544.371 65.7766C542.612 67.77 539.856 68.7668 536.104 68.7668Z" fill="#0B1220"/>
<path d="M423.212 177.821L456.808 128.395L456.28 131.913L424.795 83.8937H443.44L466.13 119.248H468.593L490.052 83.8937H507.466L477.739 130.682L478.267 127.515L513.446 177.821H494.801L468.417 139.652H465.955L440.626 177.821H423.212Z" fill="#0B1220"/>
<path d="M369.257 180.987C361.049 180.987 353.837 179.58 347.622 176.766C341.407 173.951 336.13 170.258 331.792 165.684C327.57 160.994 324.345 155.776 322.117 150.03C320.007 144.284 318.951 138.421 318.951 132.44V129.274C318.951 123.294 320.065 117.431 322.293 111.685C324.521 105.822 327.805 100.604 332.143 96.0304C336.482 91.3399 341.759 87.6461 347.974 84.949C354.189 82.1347 361.283 80.7276 369.257 80.7276C377.231 80.7276 384.325 82.1347 390.54 84.949C396.755 87.6461 402.032 91.3399 406.371 96.0304C410.709 100.604 413.993 105.822 416.221 111.685C418.449 117.431 419.563 123.294 419.563 129.274V132.44C419.563 138.421 418.449 144.284 416.221 150.03C414.11 155.776 410.885 160.994 406.547 165.684C402.325 170.258 397.107 173.951 390.892 176.766C384.677 179.58 377.465 180.987 369.257 180.987ZM369.257 165.86C376.293 165.86 382.273 164.336 387.198 161.287C392.241 158.121 396.052 153.9 398.631 148.623C401.328 143.346 402.677 137.424 402.677 130.857C402.677 124.173 401.328 118.193 398.631 112.916C395.934 107.639 392.065 103.477 387.022 100.428C382.097 97.3789 376.176 95.8545 369.257 95.8545C362.456 95.8545 356.534 97.3789 351.492 100.428C346.449 103.477 342.58 107.639 339.883 112.916C337.186 118.193 335.837 124.173 335.837 130.857C335.837 137.424 337.127 143.346 339.707 148.623C342.404 153.9 346.215 158.121 351.14 161.287C356.182 164.336 362.221 165.86 369.257 165.86Z" fill="#0B1220"/>
<path d="M252.611 177.821L208.11 49.4184H225.875L265.803 166.564L257.36 162.342H278.467L269.497 166.564L306.259 49.4184H323.496L282.161 177.821H252.611Z" fill="#0B1220"/>
<path d="M132.572 123.325L116.183 103.758L151.176 49.3301L195.936 49.9503L132.572 123.325Z" fill="#0B1220"/>
<path d="M86.0898 144.823L98.7001 160.828L84.6348 178.773L59.8992 178.773L86.0898 144.823Z" fill="#0B1220"/>
<path d="M55.7496 35.8299L25.839 59.1985L134.952 198.857L164.863 175.488L55.7496 35.8299Z" fill="url(#paint0_linear_20_42)"/>
<defs>
<linearGradient id="paint0_linear_20_42" x1="54.2359" y1="95.5448" x2="83.9987" y2="72.2131" gradientUnits="userSpaceOnUse">
<stop offset="0.25" stop-color="#67E8F9"/>
<stop offset="0.25" stop-color="#06B6D4"/>
</linearGradient>
</defs>
</svg>
