<svg width="1492" height="240" viewBox="0 0 1492 240" fill="none" xmlns="http://www.w3.org/2000/svg">
<path d="M709.946 200.511V145.382L715.781 133.712C715.474 142.618 713.682 149.938 710.406 155.671C707.13 161.404 702.882 165.652 697.661 168.417C692.542 171.181 686.911 172.563 680.769 172.563C674.934 172.563 669.559 171.437 664.645 169.184C659.833 166.932 655.636 163.81 652.053 159.817C648.572 155.825 645.859 151.269 643.914 146.15C641.969 140.929 640.997 135.401 640.997 129.566V126.801C640.997 120.966 641.969 115.54 643.914 110.524C645.859 105.508 648.623 101.106 652.207 97.3177C655.79 93.4275 660.038 90.4075 664.952 88.2576C669.866 86.1078 675.343 85.0328 681.383 85.0328C688.345 85.0328 694.436 86.5173 699.657 89.4861C704.98 92.455 709.178 96.7547 712.249 102.385C715.32 108.016 717.009 114.875 717.316 122.962H713.017V87.7969H724.687V200.511H709.946ZM683.379 159.049C688.396 159.049 692.951 157.923 697.046 155.671C701.141 153.419 704.417 150.194 706.874 145.997C709.331 141.697 710.56 136.681 710.56 130.948V123.884C710.56 118.253 709.28 113.493 706.721 109.603C704.264 105.61 700.937 102.59 696.739 100.543C692.644 98.3927 688.191 97.3177 683.379 97.3177C677.851 97.3177 672.988 98.5974 668.791 101.157C664.696 103.716 661.471 107.35 659.117 112.06C656.865 116.666 655.738 122.041 655.738 128.184C655.738 134.326 656.916 139.752 659.27 144.461C661.625 149.068 664.901 152.651 669.098 155.21C673.296 157.77 678.056 159.049 683.379 159.049Z" fill="#E5E7EB"/>
<path d="M553.71 169.799V87.7969H565.38V122.962H563.538C563.538 114.875 564.613 108.067 566.762 102.539C569.015 96.9082 572.393 92.6597 576.898 89.7932C581.402 86.8244 587.084 85.34 593.943 85.34H594.557C604.897 85.34 612.524 88.5647 617.438 95.0143C622.454 101.464 624.962 110.78 624.962 122.962V169.799H610.22V119.891C610.22 113.544 608.429 108.477 604.846 104.689C601.263 100.798 596.349 98.8534 590.104 98.8534C583.654 98.8534 578.433 100.85 574.441 104.842C570.448 108.835 568.452 114.158 568.452 120.813V169.799H553.71Z" fill="#E5E7EB"/>
<path d="M517.331 169.799V87.7969H532.073V169.799H517.331ZM504.739 99.4676V87.7969H532.073V99.4676H504.739ZM521.478 74.5907C518.202 74.5907 515.745 73.7205 514.107 71.9801C512.571 70.2398 511.803 68.0387 511.803 65.377C511.803 62.7153 512.571 60.5142 514.107 58.7739C515.745 57.0335 518.202 56.1633 521.478 56.1633C524.754 56.1633 527.159 57.0335 528.695 58.7739C530.333 60.5142 531.152 62.7153 531.152 65.377C531.152 68.0387 530.333 70.2398 528.695 71.9801C527.159 73.7205 524.754 74.5907 521.478 74.5907Z" fill="#E5E7EB"/>
<path d="M422.92 169.799L452.25 126.648L451.789 129.719L424.302 87.7969H440.579L460.388 118.663H462.538L481.273 87.7969H496.475L470.524 128.644L470.984 125.88L501.696 169.799H485.419L462.385 136.476H460.235L438.122 169.799H422.92Z" fill="#E5E7EB"/>
<path d="M375.815 172.563C368.649 172.563 362.353 171.334 356.927 168.877C351.501 166.42 346.894 163.195 343.106 159.203C339.421 155.108 336.606 150.552 334.661 145.536C332.818 140.52 331.896 135.401 331.896 130.18V127.416C331.896 122.195 332.869 117.076 334.814 112.06C336.759 106.941 339.626 102.385 343.414 98.3927C347.201 94.2977 351.808 91.0729 357.234 88.7183C362.66 86.2613 368.853 85.0328 375.815 85.0328C382.776 85.0328 388.97 86.2613 394.396 88.7183C399.822 91.0729 404.428 94.2977 408.216 98.3927C412.004 102.385 414.871 106.941 416.816 112.06C418.761 117.076 419.733 122.195 419.733 127.416V130.18C419.733 135.401 418.761 140.52 416.816 145.536C414.973 150.552 412.158 155.108 408.37 159.203C404.684 163.195 400.129 166.42 394.703 168.877C389.277 171.334 382.981 172.563 375.815 172.563ZM375.815 159.356C381.957 159.356 387.178 158.026 391.478 155.364C395.88 152.6 399.207 148.914 401.46 144.307C403.814 139.701 404.992 134.531 404.992 128.798C404.992 122.962 403.814 117.741 401.46 113.135C399.105 108.528 395.727 104.893 391.325 102.232C387.025 99.57 381.855 98.2391 375.815 98.2391C369.877 98.2391 364.707 99.57 360.305 102.232C355.903 104.893 352.525 108.528 350.17 113.135C347.816 117.741 346.638 122.962 346.638 128.798C346.638 134.531 347.764 139.701 350.017 144.307C352.371 148.914 355.698 152.6 359.998 155.364C364.4 158.026 369.672 159.356 375.815 159.356Z" fill="#E5E7EB"/>
<path d="M273.979 169.799L235.128 57.699H250.638L285.496 159.971L278.125 156.285H296.552L288.721 159.971L320.815 57.699H335.864L299.777 169.799H273.979Z" fill="#E5E7EB"/>
<path d="M169.181 122.222L154.873 105.139L185.423 57.6219L224.5 58.1633L169.181 122.222Z" fill="#E5E7EB"/>
<path d="M128.601 140.99L139.61 154.963L127.331 170.63L105.736 170.63L128.601 140.99Z" fill="#E5E7EB"/>
<path d="M102.113 45.8357L76 66.2373L171.259 188.163L197.372 167.762L102.113 45.8357Z" fill="url(#paint0_linear_34_72)"/>
<path d="M1343.17 204.824C1339.4 204.824 1335.57 204.671 1331.7 204.365C1327.92 204.059 1324.3 203.651 1320.83 203.141V190.748C1324.51 191.258 1328.33 191.666 1332.31 191.972C1336.39 192.38 1340.21 192.584 1343.78 192.584C1351.23 192.584 1357.15 191.564 1361.53 189.524C1366.02 187.586 1369.23 184.475 1371.17 180.191C1373.21 176.009 1374.23 170.603 1374.23 163.973V148.367L1379.13 136.739C1378.82 145.001 1377.09 151.886 1373.92 157.394C1370.76 162.8 1366.63 166.88 1361.53 169.634C1356.53 172.286 1350.97 173.612 1344.85 173.612C1339.14 173.612 1333.89 172.541 1329.1 170.399C1324.4 168.155 1320.32 165.095 1316.86 161.219C1313.49 157.343 1310.84 152.906 1308.9 147.908C1307.06 142.808 1306.15 137.453 1306.15 131.843V129.089C1306.15 123.377 1307.11 118.073 1309.05 113.177C1310.99 108.179 1313.69 103.844 1317.16 100.172C1320.63 96.5001 1324.76 93.6441 1329.55 91.6041C1334.45 89.5641 1339.81 88.5441 1345.62 88.5441C1352.45 88.5441 1358.47 90.0231 1363.67 92.9811C1368.88 95.8371 1372.96 100.07 1375.91 105.68C1378.97 111.188 1380.66 117.971 1380.96 126.029L1376.68 126.182V91.2981H1388.31V163.361C1388.31 173.153 1386.78 181.058 1383.72 187.076C1380.76 193.196 1375.96 197.684 1369.33 200.54C1362.81 203.396 1354.09 204.824 1343.17 204.824ZM1347.61 160.148C1352.5 160.148 1356.94 159.077 1360.92 156.935C1365 154.793 1368.21 151.733 1370.56 147.755C1373.01 143.675 1374.23 138.83 1374.23 133.22V126.182C1374.23 120.674 1372.96 116.033 1370.41 112.259C1367.96 108.485 1364.74 105.629 1360.77 103.691C1356.79 101.753 1352.45 100.784 1347.76 100.784C1342.46 100.784 1337.77 102.008 1333.69 104.456C1329.61 106.904 1326.44 110.372 1324.2 114.86C1321.96 119.246 1320.83 124.448 1320.83 130.466C1320.83 136.484 1321.96 141.737 1324.2 146.225C1326.55 150.713 1329.71 154.181 1333.69 156.629C1337.77 158.975 1342.41 160.148 1347.61 160.148Z" fill="#E5E7EB"/>
<path d="M1217.4 173V91.298H1229.03V126.335H1227.19C1227.19 118.277 1228.26 111.494 1230.4 105.986C1232.65 100.376 1236.01 96.143 1240.5 93.287C1244.99 90.329 1250.65 88.85 1257.49 88.85H1258.1C1268.4 88.85 1276 92.063 1280.89 98.489C1285.89 104.915 1288.39 114.197 1288.39 126.335V173H1273.7V123.275C1273.7 116.951 1271.92 111.902 1268.35 108.128C1264.78 104.252 1259.88 102.314 1253.66 102.314C1247.23 102.314 1242.03 104.303 1238.05 108.281C1234.08 112.259 1232.09 117.563 1232.09 124.193V173H1217.4Z" fill="#E5E7EB"/>
<path d="M1180.31 173V91.298H1195V173H1180.31ZM1167.77 102.926V91.298H1195V102.926H1167.77ZM1184.44 78.14C1181.18 78.14 1178.73 77.273 1177.1 75.539C1175.57 73.805 1174.8 71.612 1174.8 68.96C1174.8 66.308 1175.57 64.115 1177.1 62.381C1178.73 60.647 1181.18 59.78 1184.44 59.78C1187.71 59.78 1190.1 60.647 1191.63 62.381C1193.27 64.115 1194.08 66.308 1194.08 68.96C1194.08 71.612 1193.27 73.805 1191.63 75.539C1190.1 77.273 1187.71 78.14 1184.44 78.14Z" fill="#E5E7EB"/>
<path d="M1143.01 173.918C1136.89 173.918 1131.59 173.051 1127.1 171.317C1122.72 169.583 1119.3 166.625 1116.85 162.443C1114.5 158.159 1113.33 152.396 1113.33 145.154V66.512H1127.41V146.99C1127.41 151.376 1128.58 154.793 1130.93 157.241C1133.37 159.587 1136.79 160.76 1141.18 160.76H1155.56V173.918H1143.01ZM1099.26 102.314V91.298H1155.56V102.314H1099.26Z" fill="#E5E7EB"/>
<path d="M1052.24 175.754C1045.1 175.754 1038.93 174.53 1033.72 172.082C1028.52 169.634 1024.29 166.421 1021.03 162.443C1017.76 158.363 1015.31 153.824 1013.68 148.826C1012.15 143.828 1011.39 138.728 1011.39 133.526V130.772C1011.39 125.468 1012.15 120.317 1013.68 115.319C1015.31 110.321 1017.76 105.833 1021.03 101.855C1024.29 97.7751 1028.42 94.5621 1033.42 92.2161C1038.52 89.7681 1044.49 88.5441 1051.32 88.5441C1060.19 88.5441 1067.49 90.4821 1073.2 94.3581C1079.01 98.1321 1083.3 103.028 1086.05 109.046C1088.91 115.064 1090.33 121.49 1090.33 128.324V134.903H1017.81V123.887H1079.62L1076.26 129.854C1076.26 124.04 1075.34 119.042 1073.5 114.86C1071.67 110.576 1068.91 107.261 1065.24 104.915C1061.57 102.569 1056.93 101.396 1051.32 101.396C1045.51 101.396 1040.66 102.722 1036.78 105.374C1033.01 108.026 1030.15 111.647 1028.22 116.237C1026.38 120.827 1025.46 126.131 1025.46 132.149C1025.46 137.963 1026.38 143.216 1028.22 147.908C1030.15 152.498 1033.11 156.17 1037.09 158.924C1041.07 161.576 1046.12 162.902 1052.24 162.902C1058.66 162.902 1063.87 161.474 1067.84 158.618C1071.92 155.762 1074.37 152.447 1075.19 148.673H1088.96C1087.84 154.283 1085.59 159.128 1082.23 163.208C1078.86 167.288 1074.63 170.399 1069.53 172.541C1064.43 174.683 1058.66 175.754 1052.24 175.754Z" fill="#E5E7EB"/>
<path d="M958.555 175.754C951.415 175.754 945.244 174.53 940.042 172.082C934.84 169.634 930.607 166.421 927.343 162.443C924.079 158.363 921.631 153.824 919.999 148.826C918.469 143.828 917.704 138.728 917.704 133.526V130.772C917.704 125.468 918.469 120.317 919.999 115.319C921.631 110.321 924.079 105.833 927.343 101.855C930.607 97.7751 934.738 94.5621 939.736 92.2161C944.836 89.7681 950.803 88.5441 957.637 88.5441C966.511 88.5441 973.804 90.4821 979.516 94.3581C985.33 98.1321 989.614 103.028 992.368 109.046C995.224 115.064 996.652 121.49 996.652 128.324V134.903H924.13V123.887H985.942L982.576 129.854C982.576 124.04 981.658 119.042 979.822 114.86C977.986 110.576 975.232 107.261 971.56 104.915C967.888 102.569 963.247 101.396 957.637 101.396C951.823 101.396 946.978 102.722 943.102 105.374C939.328 108.026 936.472 111.647 934.534 116.237C932.698 120.827 931.78 126.131 931.78 132.149C931.78 137.963 932.698 143.216 934.534 147.908C936.472 152.498 939.43 156.17 943.408 158.924C947.386 161.576 952.435 162.902 958.555 162.902C964.981 162.902 970.183 161.474 974.161 158.618C978.241 155.762 980.689 152.447 981.505 148.673H995.275C994.153 154.283 991.909 159.128 988.543 163.208C985.177 167.288 980.944 170.399 975.844 172.541C970.744 174.683 964.981 175.754 958.555 175.754Z" fill="#E5E7EB"/>
<path d="M792.218 173V61.3101H812.108L845.156 135.821H847.604L880.499 61.3101H900.542V173H885.548V77.6811L886.619 77.9871L854.948 149.897H836.588L804.764 77.9871L805.988 77.6811V173H792.218Z" fill="#E5E7EB"/>
<defs>
<linearGradient id="paint0_linear_34_72" x1="100.791" y1="97.9688" x2="126.775" y2="77.5995" gradientUnits="userSpaceOnUse">
<stop offset="0.25" stop-color="#67E8F9"/>
<stop offset="0.25" stop-color="#06B6D4"/>
</linearGradient>
</defs>
</svg>
